<?xml version="1.0" standalone="no"?>
<!DOCTYPE svg PUBLIC "-//W3C//DTD SVG 20010904//EN"
 "http://www.w3.org/TR/2001/REC-SVG-20010904/DTD/svg10.dtd">
<svg version="1.0" xmlns="http://www.w3.org/2000/svg"
 width="512.000000pt" height="512.000000pt" viewBox="0 0 512.000000 512.000000"
 preserveAspectRatio="xMidYMid meet">
<metadata>
Created by potrace 1.14, written by Peter Selinger 2001-2017
</metadata>
<g transform="translate(0.000000,512.000000) scale(0.100000,-0.100000)"
fill="#000000" stroke="none">
<path d="M2365 4639 c-22 -4 -56 -10 -75 -14 -260 -45 -486 -187 -569 -358
-56 -114 -62 -164 -61 -510 1 -171 6 -334 11 -362 5 -27 12 -63 14 -80 3 -16
9 -39 14 -50 5 -11 19 -46 31 -78 12 -31 41 -88 63 -125 48 -80 272 -380 352
-472 31 -36 91 -108 133 -160 42 -52 79 -97 82 -100 5 -5 38 -50 141 -190 51
-69 115 -200 129 -263 6 -29 11 -178 11 -365 1 -503 2 -468 -23 -492 -38 -35
-122 -24 -133 18 -3 14 -6 225 -6 469 l0 443 -410 0 -410 0 3 -483 c4 -472 4
-483 27 -546 51 -143 143 -245 292 -324 112 -59 225 -95 364 -114 110 -15 402
-9 494 11 345 72 555 239 606 483 20 96 20 846 0 950 -32 166 -76 255 -237
484 -69 98 -200 262 -384 483 -165 196 -203 245 -252 326 -37 62 -75 160 -87
225 -4 24 -8 397 -5 593 0 58 27 84 82 80 30 -2 46 -10 60 -29 19 -25 20 -45
19 -370 0 -190 3 -350 7 -356 5 -8 122 -10 407 -9 l400 1 0 380 c0 412 -1 426
-57 539 -54 108 -198 228 -353 293 -49 21 -181 58 -247 69 -53 9 -389 11 -433
3z"/>
</g>
</svg>
