<?xml version="1.0" standalone="no"?>
<!DOCTYPE svg PUBLIC "-//W3C//DTD SVG 1.1//EN" "http://www.w3.org/Graphics/SVG/1.1/DTD/svg11.dtd" >
<svg xmlns="http://www.w3.org/2000/svg" xmlns:xlink="http://www.w3.org/1999/xlink" version="1.1">
<metadata>
Created by FontForge 20201107 at Thu Jul  7 23:30:37 2022
 By 
(c)2022 Cruzine Design - Peter Olexa
</metadata>
<defs>
<font id="BogimberRegular" horiz-adv-x="0" >
  <font-face 
    font-family="Bogimber"
    font-weight="400"
    font-stretch="normal"
    units-per-em="1000"
    panose-1="0 0 0 0 0 0 0 0 0 0"
    ascent="800"
    descent="-200"
    x-height="526"
    cap-height="694"
    bbox="-203.195 -290 1037 763.154"
    underline-thickness="0"
    underline-position="0"
    unicode-range="U+000A-007A"
  />
<missing-glyph horiz-adv-x="527" 
d="M477 700v-700h-427v700h427zM263 371l186 309h-371zM71 650v-601l180 301zM79 21h370l-185 308zM457 47v605l-181 -302z" />
    <glyph glyph-name=".notdef" horiz-adv-x="527" 
d="M477 700v-700h-427v700h427zM263 371l186 309h-371zM71 650v-601l180 301zM79 21h370l-185 308zM457 47v605l-181 -302z" />
    <glyph glyph-name=".null" 
 />
    <glyph glyph-name=".null" 
 />
    <glyph glyph-name="uni000D" unicode="&#xd;" 
 />
    <glyph glyph-name="uni000A" unicode="&#xa;" 
 />
    <glyph glyph-name="space" unicode=" " horiz-adv-x="296" 
 />
    <glyph glyph-name="A" unicode="A" horiz-adv-x="656" 
d="M124 183l134 511h181l137 -532q11 -42 28.5 -86t57.5 -76h-246q12 16 15.5 35.5t2 40.5t-6 43t-9.5 43l-7 30h-233l-7 -24q-6 -20 -8 -44.5t2.5 -48t16 -43.5t33.5 -32h-225q28 12 50 32.5t38.5 45.5t27.5 52.5t18 52.5zM398 241l-104 402l-104 -402h208z" />
    <glyph glyph-name="B" unicode="B" horiz-adv-x="619" 
d="M65 162v370q0 21 -1 43t-5.5 43t-13 40.5t-24.5 35.5h250q41 0 90 -3t92.5 -18.5t73.5 -49.5t31 -95q-2 -63 -37 -96.5t-87 -48.5q69 -12 114.5 -58t46.5 -124q-1 -102 -67.5 -152.5t-215.5 -48.5h-291q16 16 24.5 35.5t13 40.5t5.5 43t1 43zM222 363v-324q57 0 94 13
t59 35t31 51.5t9 62.5q0 44 -14.5 75t-40 50.5t-61 28t-77.5 8.5zM222 402q31 0 64.5 4.5t61.5 18t46 38.5t18 65q-1 71 -53 101.5t-137 25.5v-253z" />
    <glyph glyph-name="C" unicode="C" horiz-adv-x="575" 
d="M406 689q14 -4 28.5 -7.5t28.5 -3.5q13 0 24.5 3.5t22.5 13.5l30 -266q-5 29 -19 61.5t-33 63.5t-41.5 56.5t-44.5 38.5q-31 16 -59 16q-42 0 -72.5 -32t-49.5 -83.5t-26.5 -116t-4 -128.5t18.5 -122t41.5 -97t64.5 -52.5t87 11.5q22 13 44.5 38.5t41.5 56t33 64t19 61.5
l-30 -266q-20 17 -46 17q-14 0 -29 -3.5t-29 -8.5q-52 -16 -101 -16q-76 0 -131 36t-90 93.5t-49 129.5t-8 144.5t33 138t74.5 109.5t115.5 60t156 -10z" />
    <glyph glyph-name="D" unicode="D" horiz-adv-x="624" 
d="M21 694h201q103 0 175 -25t117 -70.5t65.5 -109.5t20.5 -142t-20.5 -142t-65.5 -109.5t-117 -70.5t-175 -25h-201q16 16 24.5 35.5t13 40.5t5.5 43t1 43v369q0 21 -1 43t-5.5 43.5t-13 41t-24.5 35.5zM222 655v-616q64 0 104 26.5t62.5 70t30.5 98.5t8 113t-8 113
t-30.5 98.5t-62.5 70t-104 26.5z" />
    <glyph glyph-name="E" unicode="E" horiz-adv-x="562" 
d="M21 0q16 16 24.5 35.5t13 40.5t5.5 43t1 43v369q0 21 -1 43t-5.5 43.5t-13 41t-24.5 35.5h449l46 -216q-17 36 -39.5 66.5t-52.5 53t-69.5 35t-91.5 12.5h-40v-260h13q25 0 52.5 5t52.5 15t45.5 27t32.5 41v-225q-12 25 -32.5 41.5t-45.5 27t-52.5 15t-52.5 4.5h-13v-287
h54q52 0 92.5 12.5t72.5 34.5t57 52.5t44 66.5l-41 -215h-481z" />
    <glyph glyph-name="F" unicode="F" horiz-adv-x="524" 
d="M21 694h449l46 -216q-17 36 -39.5 66.5t-52.5 53t-69.5 35t-91.5 12.5h-41v-260h14q25 0 52.5 5t52.5 15t45.5 27t32.5 41v-225q-12 25 -32.5 41.5t-45.5 27t-52.5 15t-52.5 4.5h-14v-174q0 -21 1 -43t5.5 -43t13 -40.5t24.5 -35.5h-245q16 16 24.5 35.5t13 40.5t5.5 43
t1 43v369q0 21 -1 43t-5.5 43.5t-13 41t-24.5 35.5z" />
    <glyph glyph-name="G" unicode="G" horiz-adv-x="614" 
d="M406 689q14 -4 28.5 -7.5t28.5 -3.5q13 0 24.5 3.5t22.5 13.5l30 -266q-5 29 -19 61.5t-33 63.5t-41.5 56.5t-44.5 38.5q-31 16 -59 16q-42 0 -72.5 -32t-49.5 -83.5t-26.5 -115.5t-4 -128.5t18.5 -122.5t41.5 -97t64.5 -52.5t87 11.5v165q0 21 -1 43t-5.5 43t-13 40.5
t-24.5 34.5h239q-17 -17 -26.5 -44.5t-13.5 -60.5t-3.5 -69.5t2.5 -71.5t5 -66.5t4 -55.5q-10 8 -26 11.5t-36 3.5q-28 0 -55 -4.5t-42 -9.5q-52 -16 -101 -16q-76 0 -131 36t-90 93.5t-49 129.5t-8 144.5t33 138t74.5 109.5t115.5 60t156 -10z" />
    <glyph glyph-name="H" unicode="H" horiz-adv-x="667" 
d="M22 694h245q-16 -16 -24.5 -35.5t-13 -41t-5.5 -43.5t-1 -43v-160h220v160q0 21 -1 43t-5 43.5t-13 41t-25 35.5h246q-16 -16 -25 -35.5t-13 -41t-5 -43.5t-1 -43v-369q0 -21 1 -43t5 -43t13 -40.5t25 -35.5h-246q16 16 25 35.5t13 40.5t5 43t1 43v160h-220v-160
q0 -21 1 -43t5.5 -43t13 -40.5t24.5 -35.5h-245q16 16 24.5 35.5t13 40.5t5.5 43t1 43v369q0 21 -1 43t-5.5 43.5t-13 41t-24.5 35.5z" />
    <glyph glyph-name="I" unicode="I" horiz-adv-x="290" 
d="M267 694q-16 -16 -24.5 -35.5t-13 -41t-5.5 -43.5t-1 -43v-369q0 -21 1 -43t5.5 -43t13 -40.5t24.5 -35.5h-245q16 16 24.5 35.5t13 40.5t5.5 43t1 43v369q0 21 -1 43t-5.5 43.5t-13 41t-24.5 35.5h245z" />
    <glyph glyph-name="J" unicode="J" horiz-adv-x="498" 
d="M4 133q2 25 12 43.5t25.5 31t34.5 19t39 6.5q35 0 65 -20t38 -61q-21 -1 -34.5 -11t-20 -24t-6.5 -30t5.5 -29.5t17.5 -22.5t28 -8q33 1 52.5 42t19.5 138v324q0 21 -1 43t-5.5 43.5t-13 41t-24.5 35.5h245q-16 -16 -24.5 -35.5t-13 -41t-5.5 -43.5t-1 -43v-325
q0 -51 -18 -91t-49 -68t-73.5 -43.5t-90.5 -15.5q-32 0 -68.5 7.5t-67 25t-49.5 45t-17 67.5z" />
    <glyph glyph-name="K" unicode="K" horiz-adv-x="599" 
d="M66 162v369q0 21 -1 43t-5.5 43.5t-13 41t-24.5 35.5h245q-16 -16 -24.5 -35.5t-13 -41t-5.5 -43.5t-1 -43v-233l121 212q14 25 25 52t15 52.5t-1.5 46.5t-23.5 33h226q-31 -12 -60 -33t-53.5 -46t-44.5 -52.5t-34 -52.5l-52 -91l133 -257q22 -42 51.5 -86t77.5 -76h-248
q8 16 6.5 35.5t-8 40.5t-17 43t-21.5 43l-57 110l-35 -60v-50q0 -21 1 -43t5.5 -43t13 -40.5t24.5 -35.5h-245q16 16 24.5 35.5t13 40.5t5.5 43t1 43z" />
    <glyph glyph-name="L" unicode="L" horiz-adv-x="549" 
d="M267 694q-16 -16 -24.5 -35.5t-13 -41t-5.5 -43.5t-1 -43v-482h55q52 0 92.5 12.5t72.5 34.5t57 52.5t44 66.5l-41 -215h-481q16 16 24.5 35.5t13 40.5t5.5 43t1 43v369q0 21 -1 43t-5.5 43.5t-13 41t-24.5 35.5h245z" />
    <glyph glyph-name="M" unicode="M" horiz-adv-x="756" 
d="M93 183v425q-13 24 -30 46t-42 40h246q-10 -16 -11.5 -35.5t2 -41t11 -43.5t15.5 -43l117 -309l144 472h189q-16 -16 -25 -35.5t-13 -41t-5 -43.5t-1 -43v-369q0 -21 1 -43t5 -43t13 -40.5t25 -35.5h-246q16 16 25 35.5t13 40.5t5 43t1 43v329l-150 -491h-55l-185 490
v-307q0 -25 5 -52.5t15 -52.5t27 -45.5t41 -32.5h-225q25 12 41.5 32.5t27 45.5t15 52.5t4.5 52.5z" />
    <glyph glyph-name="N" unicode="N" horiz-adv-x="614" 
d="M6 694h245q-8 -16 -6.5 -35.5t8 -41t17 -43.5t21.5 -43l179 -349v328q0 25 -4.5 52.5t-15 52.5t-27 46t-41.5 33h225q-24 -12 -41 -33t-27.5 -46t-15 -52.5t-4.5 -52.5v-417q17 -26 38 -50t50 -43h-245q8 16 7 35.5t-8 40.5t-17 43t-21 43l-180 350v-329q0 -25 5 -52.5
t15 -52.5t27 -45.5t41 -32.5h-225q25 12 41.5 32.5t27 45.5t15 52.5t4.5 52.5v418q-17 26 -38 50t-50 43z" />
    <glyph glyph-name="O" unicode="O" horiz-adv-x="668" 
d="M22 347q0 74 24.5 139.5t67 114t99.5 76.5t121 28q65 0 121.5 -28t99 -76.5t67 -114t24.5 -139.5t-24.5 -139.5t-67 -114t-99 -77t-121.5 -28.5q-64 0 -121 28.5t-99.5 77t-67 114t-24.5 139.5zM334 27q30 0 56.5 25t46 68.5t31 102t11.5 124.5t-11.5 124t-31 101.5
t-46 68.5t-56.5 25t-56.5 -25t-46 -68.5t-31 -101.5t-11.5 -124t11.5 -124.5t31 -102t46 -68.5t56.5 -25z" />
    <glyph glyph-name="P" unicode="P" horiz-adv-x="633" 
d="M65 162v369q0 21 -1 43t-5.5 43.5t-13 41t-24.5 35.5l250 -1q75 1 138.5 -8.5t110 -33.5t74 -64t29.5 -99q-2 -59 -29.5 -99t-74 -64t-110 -34t-138.5 -9h-49v-120q0 -21 1 -43t5.5 -43t13 -40.5t24.5 -35.5h-245q16 16 24.5 35.5t13 40.5t5.5 43t1 43zM222 655v-334
q114 0 167.5 42.5t53.5 124.5t-53.5 124.5t-167.5 42.5z" />
    <glyph glyph-name="Q" unicode="Q" horiz-adv-x="666" 
d="M21 347q0 74 24.5 139.5t67 114t99.5 76.5t121 28q65 0 121.5 -28t99 -76.5t67 -114t24.5 -139.5q0 -78 -27.5 -137.5t-72 -103t-100 -72t-111.5 -42.5q35 5 70 8.5t66 3.5q32 0 59 -5t44.5 -18.5t25 -36.5t0.5 -58q-19 6 -43 8.5t-51 2.5q-58 0 -123.5 -6t-123.5 -6
q-36 0 -66 4t-50 14.5t-29 29.5t-2 48q99 10 168.5 31t114 62.5t64.5 107t20 165.5q0 66 -11.5 124t-31 101.5t-46 68.5t-56.5 25t-56.5 -26.5t-46 -71t-31 -102t-11.5 -119.5t9 -113.5t26 -90.5t41.5 -63t54.5 -31q-64 -4 -118.5 14.5t-94.5 56.5t-62.5 95.5t-22.5 131.5z
" />
    <glyph glyph-name="R" unicode="R" horiz-adv-x="662" 
d="M65 162v369q0 21 -1 43t-5.5 43.5t-13 41t-24.5 35.5l250 -1q75 1 138.5 -8t110 -32t74 -62t29.5 -98q-3 -77 -47 -120.5t-117 -62.5l72 -148q10 -21 21.5 -43t26 -43t33 -40.5t41.5 -35.5h-247q8 16 7.5 35.5t-6.5 40.5t-16 43t-20 43l-63 130q-18 -2 -37 0h-49v-130
q0 -21 1 -43t5.5 -43t13 -40.5t24.5 -35.5h-245q16 16 24.5 35.5t13 40.5t5.5 43t1 43zM222 655v-325q114 0 167.5 40.5t53.5 122.5t-53.5 122t-167.5 40z" />
    <glyph glyph-name="S" unicode="S" horiz-adv-x="564" 
d="M167 575q-1 -37 14.5 -62.5t41.5 -45t59.5 -34.5t68.5 -31t68.5 -35t59 -46t41 -64.5t13.5 -90.5q-1 -49 -22 -83t-53.5 -55t-73.5 -30.5t-83 -9.5q-33 0 -65 5t-60 14q-14 5 -32 8t-37 3q-17 0 -31.5 -3.5t-25.5 -12.5l-9 266q9 -40 29 -83.5t49 -79.5t67.5 -59
t83.5 -22q23 0 44.5 7t38.5 19.5t28 30.5t13 42q3 35 -12 60t-41.5 44t-60.5 34.5t-69.5 33t-69 38.5t-58.5 51t-38.5 71t-8.5 98q7 42 28.5 71t52 47t68 26t76.5 8q32 0 63 -5t59 -14q14 -5 30 -8t33 -3q14 0 27.5 3.5t24.5 13.5l12 -266q-9 41 -28 84t-47.5 79t-65.5 59
t-83 22q-47 -1 -80.5 -23t-38.5 -72z" />
    <glyph glyph-name="T" unicode="T" horiz-adv-x="664" 
d="M4 478l46 216h564l46 -216q-17 36 -39 66.5t-51.5 52.5t-68.5 34.5t-90 13.5v-483q0 -21 1 -43t5 -43t13 -40.5t25 -35.5h-246q16 16 25 35.5t13 40.5t5 43t1 43v483q-51 -1 -90 -13.5t-68.5 -34.5t-51.5 -52.5t-39 -66.5z" />
    <glyph glyph-name="U" unicode="U" horiz-adv-x="635" 
d="M14 694h245q-16 -16 -24.5 -35.5t-13 -41t-5.5 -43.5t-1 -43l2 -287q0 -50 13 -88t33.5 -63.5t46.5 -38.5t53 -13q26 0 50.5 12t43.5 37t30.5 62.5t11.5 88.5v269q0 25 -4.5 52.5t-15 52.5t-27 46t-41.5 33h226q-25 -12 -41.5 -33t-27 -46t-15.5 -52.5t-5 -52.5v-269
q0 -65 -20 -112.5t-52.5 -78.5t-74.5 -46t-86 -15q-47 0 -93 16.5t-82 49t-58.5 80t-22.5 108.5l-1 288q0 21 -1 43t-5.5 43.5t-13 41t-24.5 35.5z" />
    <glyph glyph-name="V" unicode="V" horiz-adv-x="714" 
d="M236 694q-11 -16 -13.5 -35.5t0 -41t8.5 -43.5t13 -43l146 -460l141 439q8 25 12.5 52.5t2.5 52.5t-12.5 46t-31.5 33h225q-28 -12 -52 -33t-42.5 -46t-31.5 -52.5t-21 -52.5l-158 -494l-6 -16h-161l-168 531q-7 21 -15 43t-19 43.5t-26 41t-36 35.5h245z" />
    <glyph glyph-name="W" unicode="W" horiz-adv-x="1023" 
d="M236 694q-11 -16 -13.5 -35.5t0 -41t8.5 -43.5t13 -43l146 -460l77 238l-71 222q-7 21 -15 43t-19 43.5t-25.5 41t-35.5 35.5h245q-11 -16 -13.5 -35.5t0 -41t8.5 -43.5t13 -43l146 -460l141 439q8 25 12 52.5t2 52.5t-12 46t-31 33h225q-28 -12 -51.5 -33t-42 -46
t-32 -52.5t-21.5 -52.5l-164 -510h-161l-74 232l-75 -232h-161l-168 531q-7 21 -15 43t-19 43.5t-26 41t-36 35.5h245z" />
    <glyph glyph-name="X" unicode="X" horiz-adv-x="595" 
d="M-6 694h248q-8 -16 -7 -35.5t7.5 -41t17 -43.5t21.5 -43l43 -83l32 62q13 25 22.5 52.5t12 52.5t-4 46t-24.5 33h225q-31 -12 -58 -33t-50.5 -46t-42 -52.5t-31.5 -52.5l-57 -109l123 -239q21 -42 50 -86t77 -76h-247q8 16 6.5 35.5t-8 40.5t-17 43t-21.5 43l-43 83
l-31 -62q-13 -25 -22.5 -52.5t-12 -52.5t3.5 -45.5t25 -32.5h-226q31 12 58.5 32.5t51 45.5t42 52.5t31.5 52.5l56 110l-123 238q-11 21 -23 43t-27 43.5t-34 41t-43 35.5z" />
    <glyph glyph-name="Y" unicode="Y" horiz-adv-x="648" 
d="M234 694q-8 -16 -7 -35.5t7 -41t16.5 -43.5t20.5 -43l100 -200l76 179q11 25 18 52.5t7 52.5t-8 46t-28 33h226q-30 -12 -55.5 -33t-46.5 -46t-37 -52.5t-27 -52.5l-92 -216v-132q0 -21 1 -43t5.5 -43t13 -40.5t24.5 -35.5h-245q16 16 24.5 35.5t13 40.5t5.5 43t1 43v102
l-133 267q-10 21 -22 43t-27 43.5t-33.5 41t-42.5 35.5h245z" />
    <glyph glyph-name="Z" unicode="Z" horiz-adv-x="596" 
d="M2 0q24 16 42 35.5t33 40.5t26.5 43t21.5 43l234 483h-58q-52 0 -91.5 -12.5t-69.5 -35t-52 -53t-40 -66.5l47 216h492q-24 -16 -42 -35.5t-33 -41t-26.5 -43.5t-21.5 -43l-234 -482h88q52 0 92.5 12.5t72.5 34.5t57 52.5t44 66.5l-41 -215h-541z" />
    <glyph glyph-name="a" unicode="a" horiz-adv-x="587" 
d="M18 155q1 39 18.5 70.5t45.5 53t64 33t73 11.5q46 0 88 -18.5t70 -58.5v102q0 45 -11 75.5t-28 48.5t-37 25.5t-37 7.5q-23 0 -36 -13t-13.5 -29t11.5 -30t39 -17q-1 -19 -10 -34t-23.5 -25t-32 -15.5t-35.5 -5.5q-33 0 -60 19t-28 60q3 36 22 60t48.5 38.5t65 19.5
t69.5 4q56 0 102 -16.5t78.5 -47t50.5 -74.5t18 -100v-137q0 -21 1 -43t5 -43t13 -40.5t25 -35.5h-53q-13 0 -33.5 1.5t-41.5 7.5t-40 18.5t-29 33.5v3q-27 -39 -68.5 -57t-86.5 -18q-37 0 -73.5 11.5t-65 33t-46.5 52.5t-19 69zM171 155q0 -30 8.5 -51.5t23 -35.5t33.5 -21
t38 -7q20 0 38.5 6.5t32.5 19t23 30.5t9 42v34q0 23 -9 41t-23 30.5t-32.5 19t-38.5 6.5q-19 0 -38 -6.5t-33.5 -20.5t-23 -35.5t-8.5 -51.5z" />
    <glyph glyph-name="b" unicode="b" horiz-adv-x="611" 
d="M60 162v369q0 21 -1 43t-5.5 43.5t-13 41t-24.5 35.5q59 2 110.5 23t86.5 46v-284q22 26 50 41.5t63 16.5q66 2 115 -21.5t81.5 -62t48.5 -88.5t16 -102t-16.5 -102t-49 -89t-81.5 -62t-114 -22q-37 1 -66.5 17t-51.5 43q-26 -29 -64 -38.5t-76 -9.5h-52q16 16 24.5 35.5
t13 40.5t5.5 43t1 43zM326 21q36 0 60 36t36 89.5t12 116.5t-12 116.5t-36 89.5t-60 36q-38 0 -66.5 -24t-46.5 -62v-313q18 -38 46.5 -61.5t66.5 -23.5z" />
    <glyph glyph-name="c" unicode="c" horiz-adv-x="527" 
d="M381 524q11 -3 22 -5.5t22 -2.5q22 0 35 12l24 -203q-9 39 -29.5 73t-47.5 58t-58 36.5t-61 7.5q-23 -3 -44 -18t-36.5 -44t-25 -72.5t-9.5 -104.5q0 -45 7 -88t23 -76.5t42 -54.5t62 -23q28 -1 43.5 13.5t18.5 33t-8 35t-35 19.5q-3 24 4 42.5t19.5 31t29 19t34.5 6.5
q33 0 60 -22.5t28 -69.5q-1 -36 -17.5 -62.5t-43.5 -43.5t-62 -25t-73 -8q-69 0 -121.5 23t-88 61.5t-54 88t-18.5 102.5q0 63 21 114t57.5 87t85 55t103.5 19q43 0 91 -14z" />
    <glyph glyph-name="d" unicode="d" horiz-adv-x="611" 
d="M285 537q35 -1 63 -16.5t50 -41.5v52q0 21 -1 43t-5 43.5t-13 41t-25 35.5q59 2 110.5 23t86.5 46v-601q0 -21 1 -43t5.5 -43t13 -40.5t24.5 -35.5h-52q-38 0 -76 9.5t-64 38.5q-22 -27 -51.5 -43t-66.5 -17q-65 -1 -114 22t-81.5 62t-49 89t-16.5 102t16 102t48.5 88.5
t81.5 62t115 21.5zM285 21q38 0 66.5 23.5t46.5 61.5v313q-18 38 -46.5 62t-66.5 24q-36 0 -60 -36t-36 -89.5t-12 -116.5t12 -116.5t36 -89.5t60 -36z" />
    <glyph glyph-name="e" unicode="e" horiz-adv-x="554" 
d="M23 263q0 57 20 107t54.5 87.5t81 59t99.5 21.5t99 -21.5t81 -59t55 -87.5t20 -107q-1 -5 -1 -8.5v-8.5h-356q-2 -40 4.5 -80.5t22.5 -72.5t42 -52.5t63 -21.5q26 0 41 14.5t18 33t-7.5 35t-35.5 19.5q-3 24 4 42.5t19.5 30.5t29 18.5t34.5 6.5q16 0 31.5 -5.5t28 -17
t20.5 -28.5t8 -41q-1 -36 -18.5 -62.5t-45.5 -43.5t-62 -25t-67 -8q-69 0 -121.5 23t-88.5 61.5t-54.5 88t-18.5 102.5zM176 280h203q-1 47 -9.5 88t-22 71.5t-31.5 48t-38 17.5t-38 -17.5t-31.5 -48t-22 -71.5t-10.5 -88z" />
    <glyph glyph-name="f" unicode="f" horiz-adv-x="324" 
d="M20 0q16 16 24.5 35.5t13 40.5t5.5 43t1 43v330h-44v34h44v9q0 63 18.5 106.5t48.5 70.5t68.5 39t79.5 12q36 1 70 -4.5t60 -20.5t41.5 -41t14.5 -66q-1 -22 -10 -38.5t-24 -28t-33.5 -17.5t-37.5 -6q-32 0 -59.5 18t-33.5 57q30 1 44.5 18.5t14.5 38t-12.5 37
t-36.5 16.5q-16 0 -27.5 -7t-19 -24.5t-10.5 -46.5t-3 -74v-48h105v-34h-105v-330q0 -21 1 -43t5 -43t13 -40.5t25 -35.5h-241z" />
    <glyph glyph-name="g" unicode="g" horiz-adv-x="571" 
d="M208 -133q-26 -2 -38.5 -15t-13.5 -31q-1 -19 9.5 -33.5t28.5 -24.5t41 -15t48 -5q29 0 58 7t51.5 20.5t36 34.5t11.5 50q-1 21 -20 35.5t-48.5 25t-66 18t-73.5 13.5t-70.5 12t-57.5 13q-38 12 -52 36.5t-11 52t20.5 53t43.5 40.5q-35 28 -55.5 68.5t-20.5 94.5
q0 55 21.5 96.5t57.5 69t81.5 41.5t93.5 14q44 0 86 -12q3 23 11 43.5t20.5 37t31 27t43.5 12.5q30 2 49.5 -9t29.5 -28.5t10.5 -38t-8.5 -38.5t-27.5 -29t-45.5 -10q-2 18 -15.5 28.5t-30.5 10.5q-22 0 -35 -17q58 -24 97 -73.5t39 -124.5q0 -55 -22 -96.5t-58 -69
t-81.5 -41t-93.5 -13.5q-40 0 -79 9.5t-72 29.5q-2 -29 26.5 -44t73.5 -21q32 -4 68.5 -7.5t73 -9t70.5 -15.5t60.5 -27.5t42.5 -44.5t17 -67q2 -50 -22 -86t-64.5 -59t-92.5 -34t-106 -11q-50 0 -97.5 9t-85 25.5t-61.5 40.5t-27 54q-3 26 5 47t23.5 35.5t35.5 22t41 7.5
q32 0 60 -20t35 -64zM182 317q0 -47 9 -82t23 -58.5t32.5 -35.5t37.5 -12t37 12t32.5 35.5t23 58.5t8.5 82t-8.5 82.5t-23 59t-32.5 35t-37 11.5t-37.5 -11.5t-32.5 -35t-23 -59t-9 -82.5z" />
    <glyph glyph-name="h" unicode="h" horiz-adv-x="633" 
d="M213 763v-320q24 48 71 71.5t99 23.5q36 0 70.5 -11t61.5 -33t43 -54.5t15 -74.5v-203q0 -21 1 -43t5.5 -43t13 -40.5t24.5 -35.5h-240q16 16 24.5 35.5t13 40.5t5.5 43t1 43v196q-6 76 -33.5 109t-61.5 33q-21 0 -41 -11t-36 -30.5t-26 -46.5t-10 -59v-191q0 -21 1 -43
t5 -43t13 -40.5t25 -35.5h-241q16 16 24.5 35.5t13 40.5t5.5 43t1 43v369q0 21 -1 43t-5.5 43.5t-13 41t-24.5 35.5q59 2 110.5 23t86.5 46z" />
    <glyph glyph-name="i" unicode="i" horiz-adv-x="279" 
d="M21 0q16 16 24.5 35.5t13 40.5t5.5 43t1 43v133q0 21 -1 43t-5.5 43t-13 40.5t-24.5 35.5q59 2 110.5 23t86.5 46v-364q0 -21 1 -43t5 -43t13 -40.5t25 -35.5h-241zM102 716q13 5 25.5 7t23.5 2q30 0 53.5 -13t32.5 -38q6 -17 3.5 -35t-13 -34.5t-27 -30.5t-38.5 -22
q-28 -10 -50 -10q-30 0 -53.5 13.5t-31.5 37.5q-6 17 -3 35t13 34.5t26.5 30.5t38.5 23z" />
    <glyph glyph-name="j" unicode="j" horiz-adv-x="261" 
d="M-203 -133q1 24 11 41.5t25 29.5t33.5 18t37.5 6q34 0 62.5 -19t36.5 -59q-30 -1 -44.5 -20t-14.5 -41t12.5 -40t35.5 -18q32 1 51 40.5t19 132.5v357q0 21 -1 43t-5.5 43t-13 40.5t-24.5 35.5q58 2 110 23t87 46v-570q0 -63 -19.5 -106.5t-51.5 -70.5t-72.5 -39
t-81.5 -12q-30 0 -65 7t-64 23.5t-47.5 43t-16.5 65.5zM99 716q13 5 25.5 7t23.5 2q30 0 53.5 -13t32.5 -38q6 -17 3.5 -35t-13 -34.5t-27 -30.5t-38.5 -22q-28 -10 -50 -10q-29 0 -52.5 13.5t-32.5 37.5q-6 17 -3.5 35t13 34.5t27 30.5t38.5 23z" />
    <glyph glyph-name="k" unicode="k" horiz-adv-x="592" 
d="M213 763v-503l86 104q17 21 34.5 43t31 43.5t21 41t4.5 34.5h130q-57 -30 -99 -73t-76 -85l114 -206q23 -42 54 -86t80 -76h-241q8 16 6 35.5t-9.5 40.5t-19 43t-23.5 43l-53 96l-40 -48v-48q0 -21 1 -43t5 -43t13 -40.5t25 -35.5h-241q16 16 24.5 35.5t13 40.5t5.5 43
t1 43v369q0 21 -1 43t-5.5 43.5t-13 41t-24.5 35.5q59 2 110.5 23t86.5 46z" />
    <glyph glyph-name="l" unicode="l" horiz-adv-x="275" 
d="M214 763v-601q0 -21 1 -43t5 -43t13 -40.5t25 -35.5h-241q16 16 24.5 35.5t13 40.5t5.5 43t1 43v369q0 21 -1 43t-5.5 43.5t-13 41t-24.5 35.5q59 2 110.5 23t86.5 46z" />
    <glyph glyph-name="m" unicode="m" horiz-adv-x="960" 
d="M217 526v-83q24 48 69 71.5t94 23.5q55 0 103 -28.5t67 -83.5q29 59 77 85.5t97 26.5q35 0 67 -12t57 -34.5t39.5 -54.5t13.5 -72v-203q0 -21 1 -43t5.5 -43t13 -40.5t24.5 -35.5h-241q16 16 25 35.5t13 40.5t5 43t1 43v196q-2 74 -27 106.5t-57 32.5q-19 0 -37.5 -10.5
t-33.5 -29.5t-24.5 -45.5t-9.5 -58.5v-191q0 -21 1 -43t5.5 -43t13 -40.5t24.5 -35.5h-241q16 16 25 35.5t13 40.5t5 43t1 43v196q-2 74 -27 106.5t-57 32.5q-19 0 -37.5 -10.5t-33.5 -29.5t-24.5 -45.5t-9.5 -58.5v-191q0 -21 1 -43t5 -43t13 -40.5t25 -35.5h-241
q16 16 24.5 35.5t13 40.5t5.5 43t1 43v133q0 21 -1 43t-5.5 43t-13 40.5t-24.5 35.5q59 2 110.5 23t86.5 46z" />
    <glyph glyph-name="n" unicode="n" horiz-adv-x="637" 
d="M217 526v-83q24 48 71 71.5t99 23.5q36 0 70.5 -11t61.5 -33t43 -54.5t15 -74.5v-203q0 -21 1 -43t5.5 -43t13 -40.5t24.5 -35.5h-240q16 16 24.5 35.5t13 40.5t5.5 43t1 43v196q-6 76 -33.5 109t-61.5 33q-21 0 -41 -11t-36 -30.5t-26 -46.5t-10 -59v-191q0 -21 1 -43
t5 -43t13 -40.5t25 -35.5h-241q16 16 24.5 35.5t13 40.5t5.5 43t1 43v133q0 21 -1 43t-5.5 43t-13 40.5t-24.5 35.5q59 2 110.5 23t86.5 46z" />
    <glyph glyph-name="o" unicode="o" horiz-adv-x="556" 
d="M23 263q0 57 20 107t54.5 87.5t81 59t99.5 21.5t99 -21.5t81 -59t55 -87.5t20 -107t-20 -107t-55 -87.5t-81 -59t-99 -21.5t-99.5 21.5t-81 59t-54.5 87.5t-20 107zM278 21q21 0 39.5 19t32.5 52t22 77t8 94t-8 94t-22 77t-32.5 52t-39.5 19t-39.5 -19t-32.5 -52t-22 -77
t-8 -94t8 -94t22 -77t32.5 -52t39.5 -19z" />
    <glyph glyph-name="p" unicode="p" horiz-adv-x="613" 
d="M215 526v-42q21 24 49.5 38.5t63.5 15.5q65 1 114 -22t81.5 -62t49 -89t16.5 -102t-16 -102t-48.5 -88.5t-81.5 -62t-115 -21.5q-35 1 -63 17t-50 42v-123q0 -21 1 -43t5 -43t13 -40.5t25 -35.5h-241q16 16 24.5 35.5t13 40.5t5.5 43t1 43v370q0 21 -1 43t-5.5 43
t-13 40.5t-24.5 35.5q59 2 110.5 23t86.5 46zM328 22q27 0 47.5 21t34 54.5t20 77t6.5 89t-6.5 89t-20 77t-34 54.5t-47.5 21q-38 0 -66.5 -23t-46.5 -61v-314q18 -38 46.5 -61.5t66.5 -23.5z" />
    <glyph glyph-name="q" unicode="q" horiz-adv-x="597" 
d="M285 538q38 -1 68 -17.5t52 -45.5l146 51v-601q0 -21 1 -43t5.5 -43t13 -40.5t24.5 -35.5h-241q16 16 25 35.5t13 40.5t5 43t1 43v123q-22 -26 -50 -42t-63 -17q-66 -2 -115 21t-81.5 62t-48.5 88.5t-16 101.5t16.5 102t49 89t81.5 62.5t114 22.5zM285 22q38 0 66.5 23.5
t46.5 61.5v314q-18 38 -46.5 61t-66.5 23q-27 0 -47 -21t-33.5 -54.5t-20.5 -77t-7 -89t7 -89t20.5 -77t33.5 -54.5t47 -21z" />
    <glyph glyph-name="r" unicode="r" horiz-adv-x="569" 
d="M217 526v-83q24 48 69 72t95 24q34 0 66.5 -11.5t57.5 -35t40 -59t14 -83.5h-153v8q-2 74 -27 106.5t-57 32.5q-19 0 -37.5 -10.5t-33.5 -29.5t-24.5 -45.5t-9.5 -58.5v-191q0 -21 1 -43t5 -43t13 -40.5t25 -35.5h-241q16 16 24.5 35.5t13 40.5t5.5 43t1 43v133
q0 21 -1 43t-5.5 43t-13 40.5t-24.5 35.5q59 2 110.5 23t86.5 46z" />
    <glyph glyph-name="s" unicode="s" horiz-adv-x="483" 
d="M32 396q0 29 12.5 55t37.5 45.5t62 31t86 10.5q19 0 38.5 -4l39 -8t38.5 -7.5t37 -3.5q11 0 22 2t22 7l10 -203q-7 31 -22 63t-37 59t-50.5 45t-62.5 20q-40 2 -67.5 -17.5t-31.5 -57.5q-1 -34 20 -55t53 -37t69.5 -31t70 -37.5t53.5 -56t21 -86.5q0 -28 -13.5 -54.5
t-39 -46t-63.5 -31t-87 -10.5q-19 0 -38.5 4l-39 8t-38 7.5t-36.5 3.5q-12 0 -23 -2t-22 -7l-9 203q7 -31 22 -63t36.5 -59t50 -45t62.5 -20q40 -2 70 18t33 58q1 34 -20 54.5t-52.5 36.5t-69 31t-70 37.5t-53.5 56t-21 86.5z" />
    <glyph glyph-name="t" unicode="t" horiz-adv-x="331" 
d="M213 651v-125h105v-34h-105v-287q0 -36 4.5 -64t16.5 -46t33 -25t54 0q-10 -36 -44.5 -58.5t-76.5 -22.5q-26 0 -51 10t-45 32t-32 57t-12 86v318h-44v34q26 2 58 16t61 33t50.5 39.5t27.5 36.5z" />
    <glyph glyph-name="u" unicode="u" horiz-adv-x="634" 
d="M212 526v-358q3 -38 11.5 -65t21.5 -44t29 -25t32 -8q21 0 41 11t36.5 30.5t26.5 46.5t10 59v122q0 21 -1 43t-5.5 43t-13 40.5t-24.5 35.5q58 2 110 23t86 46v-364q0 -21 1 -43t5.5 -43t13 -40.5t24.5 -35.5h-196v83q-24 -48 -71 -71t-99 -23q-36 0 -70.5 11t-61.5 33
t-43.5 54t-15.5 74v134q0 21 -1 43t-5.5 43t-13 40.5t-24.5 35.5q59 2 110.5 23t86.5 46z" />
    <glyph glyph-name="v" unicode="v" horiz-adv-x="603" 
d="M236 526q-10 -15 -12.5 -34.5t0.5 -41t9.5 -43.5t13.5 -43l105 -306l111 306q8 21 15 43t10.5 43.5t1.5 41t-12 34.5h130q-43 -31 -65.5 -75.5t-37.5 -86.5l-132 -364h-154l-125 364q-7 21 -15.5 43t-20 43.5t-27 41t-36.5 34.5h241z" />
    <glyph glyph-name="w" unicode="w" horiz-adv-x="919" 
d="M236 526q-10 -15 -12.5 -34.5t0.5 -41t9.5 -43.5t13.5 -43l105 -306l84 231l-26 75q-14 42 -35.5 86.5t-63.5 75.5h241q-11 -15 -13 -34.5t1 -41t9.5 -43.5t13.5 -43l105 -306l111 306q8 21 15 43t10.5 43.5t1.5 41t-12 34.5h130q-22 -15 -38 -34.5t-28 -41t-20.5 -43.5
t-16.5 -43l-132 -364h-155l-78 229l-83 -229h-154l-125 364q-7 21 -15.5 43t-20 43.5t-27 41t-36.5 34.5h241z" />
    <glyph glyph-name="x" unicode="x" horiz-adv-x="538" 
d="M238 526q-7 -15 -5 -34.5t9.5 -41t19.5 -43.5t24 -43l13 -22l15 22q14 21 28 43t24 43.5t14 41t-1 34.5h130q-53 -31 -88.5 -75.5t-64.5 -86.5l-38 -56l83 -146q12 -21 25.5 -43t30 -43t36.5 -40.5t45 -35.5h-241q7 16 4 35.5t-11 40.5t-19.5 43t-22.5 43l-12 23l-15 -23
q-14 -21 -28 -43t-24 -43t-14.5 -40.5t1.5 -35.5h-130q53 32 89 76t64 86l37 56l-83 146q-24 42 -55 86.5t-81 75.5h241z" />
    <glyph glyph-name="y" unicode="y" horiz-adv-x="603" 
d="M-54 -133q1 24 11 41.5t25 29.5t33.5 18t37.5 6q34 0 62.5 -19t36.5 -59q-30 -1 -44.5 -18.5t-14.5 -38.5t12.5 -38.5t36.5 -18.5q26 -1 48.5 18.5t35 52t12.5 74t-20 85.5l-124 364q-14 42 -35.5 86.5t-63.5 75.5h241q-10 -15 -12.5 -34.5t0.5 -41t9.5 -43.5t13.5 -43
l105 -306l111 306q8 21 15 43t10.5 43.5t1.5 41t-12 34.5h130q-22 -15 -38 -34.5t-28 -41t-20.5 -43.5t-16.5 -43l-151 -415q-15 -41 -33.5 -81t-45.5 -71t-64 -50t-89 -19q-33 0 -65 8.5t-57.5 25.5t-40.5 43t-13 62z" />
    <glyph glyph-name="z" unicode="z" horiz-adv-x="527" 
d="M3 0q48 32 76.5 76t49.5 86l169 332h-97q-68 0 -106.5 -31.5t-61.5 -79.5l31 143h447q-48 -31 -76.5 -75.5t-49.5 -86.5l-169 -332h131q35 0 61 8.5t46 23t34.5 35t26.5 44.5l-31 -143h-481z" />
    </font>
</defs>
</svg>
